<svg xmlns="http://www.w3.org/2000/svg" width="31.88" height="32" viewBox="0 0 256 257"><path fill="#FF3E00" d="M127.987.318c-11.087.044-21.95 1.437-32.508 4.224c-10.556 2.787-20.737 6.964-30.352 12.434c-9.61 5.467-18.48 12.183-26.42 20.031C31.77 45.938 24.4 55.336 18.548 65.84c-5.85 10.503-10.207 21.847-12.93 33.6c-2.724 11.752-3.807 23.81-3.253 35.865c.553 12.055 2.84 23.964 6.802 35.342c3.963 11.379 9.572 22.122 16.658 31.836c7.085 9.713 15.566 18.267 25.213 25.317c9.646 7.05 20.386 12.5 31.84 16.168c11.455 3.668 23.514 5.504 35.573 5.444c12.06-.06 24.094-2.048 35.49-5.896c11.395-3.849 22.053-9.54 31.614-16.916c9.562-7.377 17.95-16.35 24.92-26.646c6.97-10.297 12.337-21.79 15.873-33.984c3.536-12.194 5.187-24.957 4.864-37.72c-.323-12.762-2.592-25.39-6.734-37.437c-4.142-12.046-10.125-23.39-17.772-33.61c-7.647-10.221-16.866-19.21-27.39-26.65c-10.523-7.44-22.242-13.25-34.762-17.19c-12.52-3.94-25.7-6.01-38.963-6.014Z"/></svg>